<svg width="20" height="20" viewBox="0 0 20 20" fill="none" xmlns="http://www.w3.org/2000/svg">
<path d="M10.8919 3.55919L12.4279 6.56561C12.5765 6.85422 12.8738 7.07069 13.1959 7.11879L16.6148 7.59981C17.4571 7.72007 17.8039 8.73023 17.1846 9.30746L14.7071 11.6404C14.4594 11.8569 14.3603 12.1936 14.4098 12.5303L15.0044 15.8254C15.1531 16.6431 14.2612 17.2684 13.518 16.8836L10.4707 15.3203C10.1734 15.176 9.80181 15.176 9.50451 15.3203L6.45726 16.8836C5.68926 17.2684 4.82216 16.6431 4.9708 15.8254L5.56539 12.5303C5.61494 12.1936 5.51584 11.8809 5.26809 11.6404L2.81543 9.30746C2.19607 8.73023 2.54291 7.72007 3.38524 7.59981L6.80411 7.11879C7.15095 7.07069 7.42346 6.87827 7.57211 6.56561L9.08335 3.55919C9.43019 2.8136 10.5203 2.8136 10.8919 3.55919Z" fill="#FFC012" stroke="#FFC012" stroke-width="2" stroke-linecap="round" stroke-linejoin="round"/>
</svg>
